<svg width="40" height="40" viewBox="0 0 40 40" fill="none" xmlns="http://www.w3.org/2000/svg">
<rect x="0.5" y="0.5" width="39" height="39" rx="7.5" stroke="#CCCCCC"/>
<path d="M26.0193 12.4777C24.4243 10.8913 22.2609 10 20.0052 10C17.7495 10 15.5862 10.8913 13.9911 12.4777C12.3961 14.0642 11.5 16.2159 11.5 18.4594C11.5 20.703 12.3961 22.8547 13.9911 24.4412L19.2735 29.7051C19.3667 29.7985 19.4775 29.8727 19.5997 29.9233C19.7218 29.9739 19.8528 30 19.9852 30C20.1175 30 20.2485 29.9739 20.3706 29.9233C20.4928 29.8727 20.6036 29.7985 20.6968 29.7051L26.0193 24.3913C27.6077 22.8115 28.5 20.6688 28.5 18.4345C28.5 16.2003 27.6077 14.0576 26.0193 12.4777ZM24.5859 22.9657L20.0052 27.5417L15.4245 22.9657C14.5195 22.0648 13.9034 20.9172 13.654 19.668C13.4047 18.4189 13.5332 17.1243 14.0235 15.9478C14.5138 14.7713 15.3437 13.7658 16.4084 13.0584C17.4731 12.351 18.7248 11.9734 20.0052 11.9734C21.2856 11.9734 22.5373 12.351 23.602 13.0584C24.6667 13.7658 25.4966 14.7713 25.9869 15.9478C26.4772 17.1243 26.6058 18.4189 26.3564 19.668C26.107 20.9172 25.4909 22.0648 24.5859 22.9657ZM16.9982 15.3988C16.189 16.2061 15.7346 17.2996 15.7346 18.4395C15.7346 19.5795 16.189 20.6729 16.9982 21.4802C17.5993 22.0792 18.365 22.4882 19.199 22.656C20.033 22.8238 20.8983 22.7429 21.6862 22.4235C22.4742 22.104 23.1498 21.5603 23.6282 20.8604C24.1066 20.1605 24.3666 19.3356 24.3754 18.4894C24.38 17.9243 24.2705 17.3641 24.0536 16.8418C23.8367 16.3195 23.5167 15.8458 23.1125 15.4486C22.7152 15.0445 22.2415 14.7224 21.7186 14.501C21.1958 14.2796 20.634 14.1632 20.0657 14.1586C19.4975 14.154 18.9339 14.2612 18.4074 14.474C17.881 14.6868 17.402 15.0011 16.9982 15.3988ZM21.6992 20.0645C21.3193 20.4481 20.8173 20.6885 20.279 20.7447C19.7406 20.8009 19.1994 20.6693 18.7478 20.3725C18.2962 20.0757 17.9622 19.6321 17.8031 19.1175C17.6439 18.6029 17.6694 18.0493 17.8752 17.5514C18.081 17.0534 18.4543 16.642 18.9313 16.3875C19.4083 16.133 19.9593 16.0512 20.4903 16.1561C21.0212 16.261 21.499 16.546 21.842 16.9625C22.185 17.379 22.3719 17.9011 22.3707 18.4395C22.3562 19.0549 22.0966 19.6394 21.6491 20.0645H21.6992Z" fill="#262626"/>
</svg>
